:SAMPLES-PER-SECOND 30
:FULLY-SPECIFIED
:DEGREES
1
root  83.2029 40.3776 -4.05201 179.369 -89.0841 -178.837
RightUpLeg  -0.686285 -8.34086 -5.40111
RightLeg  3.03518 -6.83921 3.9716
RightFoot  -1.59636 0.0872532 -1.23458
RightToes  0.00048216 0.542163 -0.142577
Spine  3.4916 -0.10569 1.4368
Spine1  0.261687 0.169453 -1.40894
HEad  -3.0696 3.98184 0.0425344
LeftShoulder1  0.87944 -0.75577 -13.5187
LeftArm  -18.6253 -0.620217 -1.84842
LeftForeArm  9.8242 0.940912 -2.31919
LeftHand  -0.25398 0.0180481 5.50724
RightShoulder  0.587929 -0.161831 10.3368
RightArm  -22.9867 3.48793 3.28572
RightForeArm  0.603228 -1.76301 2.37464
RightHand  -2.00444 7.31225 -18.5864
LeftUpLeg  0.182786 5.76013 3.62212
LeftLeg  2.05878 13.5295 -4.14967
LeftFoot  -2.69775 -0.0224916 0.539461
LeftToes  1.06246e-005 4.65856e-005 -8.18504e-006
2
root  83.1916 40.3746 -4.05459 178.741 -89.0373 -178.259
RightUpLeg  -0.63601 -8.32342 -5.38747
RightLeg  3.07077 -6.80581 3.95204
RightFoot  -1.66217 0.0849152 -1.19824
RightToes  0.00048216 0.542163 -0.142577
Spine  3.50448 -0.112868 1.47052
Spine1  0.275375 0.164631 -1.42038
HEad  -2.99631 4.04355 0.0751857
LeftShoulder1  0.877354 -0.743934 -13.5541
LeftArm  -18.6617 -0.638266 -1.84649
LeftForeArm  9.8795 0.98028 -2.29848
LeftHand  -0.25398 0.0180481 5.50724
RightShoulder  0.609488 -0.046237 10.3774
RightArm  -22.9405 3.37666 3.19866
RightForeArm  0.807475 -1.70149 2.37915
RightHand  -2.00026 7.41275 -18.4114
LeftUpLeg  0.233666 5.7726 3.64106
LeftLeg  2.12619 13.5533 -4.12445
LeftFoot  -2.76891 -0.0218984 0.530241
LeftToes  1.06246e-005 4.65856e-005 -8.18504e-006
3
root  83.1639 40.3702 -4.06184 177.774 -88.8916 -177.344
RightUpLeg  -0.582733 -8.27179 -5.33869
RightLeg  3.11759 -6.71641 3.90862
RightFoot  -1.73885 0.082942 -1.16757
RightToes  0.00048216 0.542163 -0.142577
Spine  3.29761 -0.131874 1.54014
Spine1  0.562855 0.143747 -1.41098
HEad  -2.83077 4.28039 0.167386
LeftShoulder1  0.866976 -0.655674 -13.7381
LeftArm  -18.6281 -0.652813 -1.77863
LeftForeArm  9.83571 0.901188 -2.32758
LeftHand  -0.25398 0.0180481 5.50724
RightShoulder  0.637023 0.120608 10.3213
RightArm  -22.9567 3.36743 3.21374
RightForeArm  1.14379 -1.69801 2.35682
RightHand  -2.00062 7.54198 -18.2398
LeftUpLeg  0.299095 5.84457 3.70749
LeftLeg  2.26451 13.6052 -4.12059
LeftFoot  -2.89969 -0.0206221 0.516771
LeftToes  1.06246e-005 4.65856e-005 -8.18504e-006
4
root  83.124 40.3659 -4.06969 177.282 -88.7588 -176.854
RightUpLeg  -0.582212 -8.23129 -5.29087
RightLeg  3.19431 -6.662 3.86785
RightFoot  -1.80421 0.0837689 -1.18042
RightToes  0.00048216 0.542163 -0.142577
Spine  2.91846 -0.166296 1.59646
Spine1  0.986683 0.099042 -1.36411
HEad  -2.75068 4.39792 0.0482902
LeftShoulder1  0.853433 -0.551722 -13.9492
LeftArm  -18.7134 -0.691172 -1.74761
LeftForeArm  9.85284 0.883089 -2.29837
LeftHand  -0.25398 0.0180481 5.50724
RightShoulder  0.643125 0.184351 10.1677
RightArm  -23.0058 3.53143 3.39854
RightForeArm  1.17677 -1.80056 2.33546
RightHand  -2.01011 7.50205 -18.3773
LeftUpLeg  0.307681 5.95033 3.78971
LeftLeg  2.44616 13.62 -4.1497
LeftFoot  -3.04069 -0.0177884 0.497311
LeftToes  1.06246e-005 4.65856e-005 -8.18504e-006
5
root  83.0815 40.3607 -4.07542 177.371 -88.7477 -176.925
RightUpLeg  -0.600981 -8.24385 -5.28748
RightLeg  3.32257 -6.6844 3.8522
RightFoot  -1.90809 0.0860335 -1.21562
RightToes  0.00048216 0.542163 -0.142577
Spine  2.73308 -0.208943 1.62164
Spine1  1.07538 0.0512842 -1.34616
HEad  -2.59835 4.44637 0.0294637
LeftShoulder1  0.852315 -0.543948 -13.9634
LeftArm  -18.9439 -0.727188 -1.83447
LeftForeArm  9.97598 1.0722 -2.17301
LeftHand  -0.25398 0.0180481 5.50724
RightShoulder  0.654084 0.247827 10.164
RightArm  -22.8796 3.53501 3.43632
RightForeArm  0.676094 -1.85711 2.38632
RightHand  -2.00981 7.24008 -18.7354
LeftUpLeg  0.275562 6.00838 3.83099
LeftLeg  2.63291 13.568 -4.15542
LeftFoot  -3.17275 -0.0133445 0.451598
LeftToes  1.06246e-005 4.65856e-005 -8.18504e-006
6
root  83.0431 40.3554 -4.08081 177.743 -88.8213 -177.328
RightUpLeg  -0.554281 -8.29325 -5.32131
RightLeg  3.4486 -6.71725 3.85938
RightFoot  -2.0333 0.0874426 -1.24269
RightToes  0.00048216 0.542163 -0.142577
Spine  2.85068 -0.246544 1.67935
Spine1  0.81424 0.0350044 -1.45535
HEad  -2.44617 4.36612 0.129373
LeftShoulder1  0.86154 -0.625096 -13.7608
LeftArm  -19.0211 -0.710692 -1.96151
LeftForeArm  9.90829 1.22294 -2.11819
LeftHand  -0.25398 0.0180481 5.50724
RightShoulder  0.694831 0.428578 10.426
RightArm  -22.5942 3.22071 3.13872
RightForeArm  0.103792 -1.79126 2.48219
RightHand  -1.98578 6.96888 -18.9039
LeftUpLeg  0.274078 5.95209 3.79902
LeftLeg  2.80367 13.5462 -4.0538
LeftFoot  -3.28732 -0.00718969 0.379022
LeftToes  1.06246e-005 4.65856e-005 -8.18504e-006
7
root  83.0043 40.3524 -4.08884 177.562 -88.8457 -177.245
RightUpLeg  -0.406354 -8.32365 -5.34017
RightLeg  3.50655 -6.69499 3.86631
RightFoot  -2.10606 0.0867696 -1.25216
RightToes  0.00048216 0.542163 -0.142577
Spine  2.96953 -0.25702 1.81024
Spine1  0.706689 0.0648227 -1.65011
HEad  -2.34975 4.28007 0.272903
LeftShoulder1  0.868245 -0.692793 -13.5712
LeftArm  -18.8084 -0.679764 -2.00737
LeftForeArm  9.61558 1.09255 -2.23507
LeftHand  -0.25398 0.0180481 5.50724
RightShoulder  0.724961 0.543582 10.6986
RightArm  -22.4663 2.94017 2.83051
RightForeArm  0.11237 -1.74355 2.50317
RightHand  -1.95424 6.92749 -18.6757
LeftUpLeg  0.342442 5.81585 3.73161
LeftLeg  2.97836 13.6597 -3.83642
LeftFoot  -3.38862 -0.000722977 0.300874
LeftToes  1.06246e-005 4.65856e-005 -8.18504e-006
8
root  82.9566 40.3514 -4.10088 176.48 -88.7343 -176.285
RightUpLeg  -0.212473 -8.3055 -5.31263
RightLeg  3.5097 -6.60267 3.85531
RightFoot  -2.14156 0.0854886 -1.24714
RightToes  0.00048216 0.542163 -0.142577
Spine  2.92814 -0.212908 1.90391
Spine1  0.899786 0.125623 -1.71268
HEad  -2.32229 4.40654 0.31686
LeftShoulder1  0.871191 -0.703212 -13.5926
LeftArm  -18.5515 -0.688201 -1.94391
LeftForeArm  9.56768 0.842986 -2.38393
LeftHand  -0.25398 0.0180481 5.50724
RightShoulder  0.697272 0.392042 10.6785
RightArm  -22.62 2.98021 2.89774
RightForeArm  0.562313 -1.7952 2.4307
RightHand  -1.93494 7.04918 -18.3268
LeftUpLeg  0.479888 5.73847 3.7212
LeftLeg  3.14083 13.8409 -3.64591
LeftFoot  -3.49958 0.00561864 0.223491
LeftToes  1.06246e-005 4.65856e-005 -8.18504e-006
9
root  82.9023 40.3497 -4.11583 175.925 -88.5242 -175.818
RightUpLeg  -0.0598993 -8.27668 -5.27709
RightLeg  3.51877 -6.42465 3.84225
RightFoot  -2.22036 0.084601 -1.24411
RightToes  0.00048216 0.542163 -0.142577
Spine  2.99571 -0.140941 1.87475
Spine1  0.881369 0.182151 -1.61653
HEad  -2.29312 4.737 0.268956
LeftShoulder1  0.869455 -0.674291 -13.7018
LeftArm  -18.4508 -0.658584 -1.85027
LeftForeArm  9.94654 0.727672 -2.42328
LeftHand  -0.25398 0.0180481 5.50724
RightShoulder  0.652158 0.170781 10.5135
RightArm  -22.7294 3.09644 3.15325
RightForeArm  0.74301 -1.78719 2.4018
RightHand  -1.92871 7.08935 -18.2145
LeftUpLeg  0.671693 5.80698 3.80087
LeftLeg  3.20005 13.9455 -3.63919
LeftFoot  -3.62563 0.0117706 0.147423
LeftToes  1.06246e-005 4.65856e-005 -8.18504e-006
10
root  82.8532 40.3471 -4.12852 176.826 -88.3341 -176.751
RightUpLeg  0.0127159 -8.30794 -5.30044
RightLeg  3.55596 -6.17668 3.87138
RightFoot  -2.31728 0.0855647 -1.26795
RightToes  0.00048216 0.542163 -0.142577
Spine  3.30409 -0.12186 1.8536
Spine1  0.459436 0.208645 -1.65389
HEad  -2.02141 4.62736 0.36657
LeftShoulder1  0.852571 -0.605689 -13.6289
LeftArm  -18.4575 -0.510018 -1.83003
LeftForeArm  10.2544 0.705247 -2.3866
LeftHand  -0.25398 0.0180481 5.50724
RightShoulder  0.654694 0.17188 10.5828
RightArm  -22.561 3.01461 3.16272
RightForeArm  0.506353 -1.61909 2.48611
RightHand  -1.93567 7.04854 -18.3343
LeftUpLeg  0.859936 5.92103 3.87679
LeftLeg  3.13363 13.9925 -3.75533
LeftFoot  -3.7346 0.0156849 0.104155
LeftToes  1.06246e-005 4.65856e-005 -8.18504e-006
